<?xml version="1.0" encoding="UTF-8"?>
<svg width="300px" height="200px" viewBox="0 0 300 200" version="1.1" xmlns="http://www.w3.org/2000/svg" xmlns:xlink="http://www.w3.org/1999/xlink">
    <!-- Generator: Sketch 46.2 (44496) - http://www.bohemiancoding.com/sketch -->
    <title>logo_trustarc_vertical</title>
    <desc>Created with Sketch.</desc>
    <defs></defs>
    <g id="Page-1" stroke="none" stroke-width="1" fill="none" fill-rule="evenodd">
        <g id="logo_trustarc_vertical">
            <g id="TrustArc_V" transform="translate(8.000000, 23.000000)">
                <path d="M202.669,131.351 L196.847,114.808 L191.028,131.351 L202.669,131.351 Z M205.286,138.789 L188.41,138.789 L183.866,151.71 L174.45,151.71 L192.142,101.437 L201.552,101.437 L219.241,151.71 L209.831,151.71 L205.286,138.789 Z M268.938,114.748 C256.979,114.748 249.339,123.388 249.339,133.657 C249.339,144.133 256.979,152.56 268.938,152.56 C278.631,152.56 283.797,146.684 283.797,146.684 L280.329,140.31 C280.329,140.31 275.802,144.914 269.717,144.914 C262.853,144.914 258.465,139.674 258.465,133.583 C258.465,127.423 262.78,122.397 269.433,122.397 C275.095,122.397 278.846,126.289 278.846,126.289 L282.807,120.132 C282.807,120.132 278.351,114.748 268.938,114.748 L268.938,114.748 Z M233.397,152.011 L233.397,123.78 C235.023,122.85 237.426,122.309 240.295,122.309 C242.231,122.309 244.092,122.54 245.873,123.004 L248.195,115.407 C245.873,114.551 243.239,114.241 240.06,114.241 C233.01,114.241 227.351,117.033 224.562,119.517 L224.562,152.011 L233.397,152.011 Z M150.965,138.425 C150.965,150.848 161.202,152.371 166.355,152.371 C168.099,152.371 169.187,152.156 169.187,152.156 L169.187,144.093 C169.187,144.093 168.533,144.235 167.517,144.235 C164.977,144.235 160.186,143.365 160.186,137.263 L160.186,123.416 L168.606,123.416 L168.606,115.541 L160.186,115.541 L160.186,104.863 L151.183,104.863 L150.965,138.425 Z M114.728,147.435 C114.728,147.435 119.882,152.881 129.104,152.881 C137.887,152.881 143.259,147.941 143.259,141.767 C143.259,129.854 125.255,130.507 125.255,125.275 C125.255,122.95 127.577,121.934 129.974,121.934 C135.638,121.934 139.049,125.129 139.049,125.129 L142.462,118.302 C142.462,118.302 138.396,114.086 130.048,114.086 C122.062,114.086 115.888,118.084 115.888,124.985 C115.888,136.898 133.895,136.174 133.895,141.692 C133.895,143.875 131.644,145.034 129.029,145.034 C123.004,145.034 118.94,140.965 118.94,140.965 L114.728,147.435 Z M98.327,115.521 L98.327,143.846 C96.054,144.788 93.623,145.258 90.719,145.258 C83.267,145.258 81.698,141.885 81.698,135.839 L81.698,115.521 L72.757,115.521 L72.757,138.431 C72.757,147.457 77.932,153.187 89.542,153.187 C97.777,153.187 103.505,151.068 107.271,149.264 L107.271,115.521 L98.327,115.521 Z M52.442,152.011 L52.442,123.78 C54.066,122.85 56.469,122.309 59.338,122.309 C61.274,122.309 63.133,122.54 64.917,123.004 L67.242,115.407 C64.917,114.551 62.282,114.241 59.104,114.241 C52.053,114.241 46.397,117.033 43.605,119.517 L43.605,152.011 L52.442,152.011 Z M17.016,109.436 L0.237,109.436 L0.237,101.088 L43.431,101.088 L43.431,109.436 L26.649,109.436 L26.649,152.011 L17.016,152.011 L17.016,109.436 L17.016,109.436 Z" id="Fill-1" fill="#004575"></path>
                <path d="M136.192,43.234 C152.851,25.363 177.862,19.975 199.559,27.446 C183.611,17.372 162.712,16.439 145.445,26.822 C127.863,37.393 118.851,56.798 120.667,75.954 C122.286,64.115 127.429,52.639 136.192,43.234" id="Fill-2" fill="#5EC323"></path>
                <path d="M112.698,3.77 C117.506,3.602 121.508,5.948 121.658,8.956 C121.658,8.956 122.242,11.936 117.216,16.078 C115.88,17.267 114.59,18.522 113.347,19.857 C91.809,42.971 93.073,79.177 116.169,100.729 C116.251,100.805 116.337,100.875 116.419,100.951 C109.597,91.654 105.398,80.279 104.964,67.882 C103.817,35.057 129.479,7.524 162.274,6.38 C170.252,6.101 177.91,7.42 184.958,10.032 C171.982,2.089 156.6,-0.161 142.278,3.139 C138.572,3.682 134.816,2.617 133.391,2.139 C126.863,-0.412 119.23,-0.008 112.698,3.77" id="Fill-3" fill="#5EC323"></path>
            </g>
        </g>
    </g>
</svg>