<?xml version="1.0" encoding="UTF-8"?>
<svg width="196px" height="196px" viewBox="0 0 196 196" version="1.1" xmlns="http://www.w3.org/2000/svg" xmlns:xlink="http://www.w3.org/1999/xlink">
    <!-- Generator: Sketch 47.1 (45422) - http://www.bohemiancoding.com/sketch -->
    <title>logo_trustarc_vertical</title>
    <desc>Created with Sketch.</desc>
    <defs></defs>
    <g id="Page-1" stroke="none" stroke-width="1" fill="none" fill-rule="evenodd">
        <g id="logo_trustarc_vertical">
            <g id="TrustArc_V" transform="translate(5.000000, 48.000000)">
                <path d="M132.784427,85.7497457 L128.96551,74.9537227 L125.148561,85.7497457 L132.784427,85.7497457 Z M134.501037,90.603812 L123.431295,90.603812 L120.450677,99.0361043 L114.274291,99.0361043 L125.879285,66.2277587 L132.051735,66.2277587 L143.654761,99.0361043 L137.482311,99.0361043 L134.501037,90.603812 Z M176.253301,74.9145665 C168.408845,74.9145665 163.397419,80.5530624 163.397419,87.2546498 C163.397419,94.0913261 168.408845,99.5908175 176.253301,99.5908175 C182.611384,99.5908175 186,95.7561182 186,95.7561182 L183.72518,91.5964222 C183.72518,91.5964222 180.755713,94.6010096 176.764283,94.6010096 C172.261871,94.6010096 169.38358,91.1813662 169.38358,87.2063571 C169.38358,83.1863184 172.213986,79.9063322 176.577994,79.9063322 C180.291959,79.9063322 182.752412,82.4462658 182.752412,82.4462658 L185.350614,78.4281848 C185.350614,78.4281848 182.427719,74.9145665 176.253301,74.9145665 L176.253301,74.9145665 Z M152.94033,99.2325381 L152.94033,80.8088831 C154.006898,80.2019616 155.583136,79.848903 157.465044,79.848903 C158.734956,79.848903 159.955671,79.9996545 161.12391,80.3024626 L162.647017,75.3446323 C161.12391,74.7860036 159.396149,74.5836964 157.310897,74.5836964 C152.686479,74.5836964 148.974482,76.4057659 147.145049,78.0268335 L147.145049,99.2325381 L152.94033,99.2325381 Z M98.8694033,90.3662642 C98.8694033,98.47356 105.584321,99.4674754 108.96441,99.4674754 C110.108379,99.4674754 110.822048,99.3271656 110.822048,99.3271656 L110.822048,94.065222 C110.822048,94.065222 110.39306,94.1578917 109.726619,94.1578917 C108.060516,94.1578917 104.91788,93.5901265 104.91788,89.6079387 L104.91788,80.5713353 L110.440944,80.5713353 L110.440944,75.4320812 L104.91788,75.4320812 L104.91788,68.463579 L99.0123995,68.463579 L98.8694033,90.3662642 Z M75.0998942,96.2462235 C75.0998942,96.2462235 78.480639,99.8003033 84.5297715,99.8003033 C90.2909437,99.8003033 93.8146847,96.576441 93.8146847,92.5472658 C93.8146847,84.7727979 82.005036,85.1989482 82.005036,81.7845256 C82.005036,80.267222 83.5281422,79.6041767 85.1004444,79.6041767 C88.8157215,79.6041767 91.0531528,81.6892455 91.0531528,81.6892455 L93.2918959,77.23392 C93.2918959,77.23392 90.6248201,74.4825429 85.1489843,74.4825429 C79.9106009,74.4825429 75.8607914,77.0916524 75.8607914,81.5952705 C75.8607914,89.3697384 87.672408,88.8972533 87.672408,92.4983205 C87.672408,93.9229544 86.1958739,94.6793221 84.4805755,94.6793221 C80.5285019,94.6793221 77.862738,92.0238776 77.862738,92.0238776 L75.0998942,96.2462235 Z M64.3417266,75.4190292 L64.3417266,93.9040289 C62.8507617,94.5187816 61.2561574,94.8255053 59.3512907,94.8255053 C54.4631824,94.8255053 53.4340034,92.624273 53.4340034,88.6786311 L53.4340034,75.4190292 L47.5691917,75.4190292 L47.5691917,90.3701798 C47.5691917,96.2605808 50.9637114,100 58.5792425,100 C63.9809564,100 67.7382141,98.6171328 70.2085061,97.4398357 L70.2085061,75.4190292 L64.3417266,75.4190292 Z M34.2436521,99.2325381 L34.2436521,80.8088831 C35.3089082,80.2019616 36.885146,79.848903 38.7670546,79.848903 C40.0369657,79.848903 41.256369,79.9996545 42.4265764,80.3024626 L43.9516504,75.3446323 C42.4265764,74.7860036 40.6981591,74.5836964 38.6135633,74.5836964 C33.9884892,74.5836964 30.2784596,76.4057659 28.4470588,78.0268335 L28.4470588,99.2325381 L34.2436521,99.2325381 Z M11.0061151,71.4479357 L0,71.4479357 L0,66 L28.3329242,66 L28.3329242,71.4479357 L17.3248413,71.4479357 L17.3248413,99.2325381 L11.0061151,99.2325381 L11.0061151,71.4479357 L11.0061151,71.4479357 Z" id="Fill-1" fill="#004575"></path>
                <path d="M89.3542709,28.57368 C100.302812,16.8710588 116.740411,13.3427883 131,18.2350877 C120.518739,11.6382433 106.783607,11.0272789 95.4354793,17.8264684 C83.880329,24.7487676 77.9575094,37.4559112 79.1510114,50 C80.2150421,42.2473655 83.5950978,34.7324373 89.3542709,28.57368" id="Fill-2" fill="#5EC323"></path>
                <path d="M73.6424384,2.13607286 C76.7934923,2.02566918 79.4163122,3.56737767 79.5146188,5.54412923 C79.5146188,5.54412923 79.8973591,7.50248017 76.6034329,10.2244565 C75.7278489,11.0058254 74.8824122,11.8305672 74.0677783,12.7078821 C59.9522626,27.8975881 60.7806595,51.6908948 75.9172529,65.8541094 C75.9709939,65.9040539 76.0273563,65.9500555 76.0810972,66 C71.6101135,59.8903394 68.8581843,52.4150904 68.5737506,44.268219 C67.8220329,22.6967863 84.6403244,4.60306931 106.133422,3.85127284 C111.362022,3.66792388 116.380901,4.53472418 121,6.2512385 C112.495825,1.03137892 102.414811,-0.447241756 93.0284981,1.7214019 C90.5996699,2.07824236 88.1380729,1.37836191 87.2041603,1.06423716 C82.9258575,-0.612190108 77.9233628,-0.34669555 73.6424384,2.13607286" id="Fill-3" fill="#5EC323"></path>
            </g>
        </g>
    </g>
</svg>